<?xml version="1.0" encoding="UTF-8" standalone="no"?><!DOCTYPE svg PUBLIC "-//W3C//DTD SVG 1.1//EN" "http://www.w3.org/Graphics/SVG/1.1/DTD/svg11.dtd"><svg width="100%" height="100%" viewBox="0 0 5638 1950" version="1.1" xmlns="http://www.w3.org/2000/svg" xmlns:xlink="http://www.w3.org/1999/xlink" xml:space="preserve" xmlns:serif="http://www.serif.com/" style="fill-rule:evenodd;clip-rule:evenodd;stroke-linecap:round;stroke-linejoin:round;stroke-miterlimit:1.5;"><rect id="LSS_pcb" x="2.342" y="1.429" width="5634.73" height="1947.14" style="fill:none;"/><g><path d="M4417.49,1281.64l654.703,-262.063l-81.068,712.99l-512.297,-10.866" style="fill:none;stroke:#000;stroke-width:6.67px;"/><path d="M4452.63,1292.86l298.77,-113.318l17.183,521.96l-290.806,-4.842" style="fill:none;stroke:#000;stroke-width:6.67px;"/><path d="M4472.49,1304.98l262.424,-95.423l9.93,466.332l-268.881,0.636" style="fill:none;stroke:#000;stroke-width:6.67px;"/><path d="M4516.84,1324.78l218.076,-71.423" style="fill:none;stroke:#000;stroke-width:6.67px;"/><path d="M4504.61,1363.49l230.306,-70.629" style="fill:none;stroke:#000;stroke-width:6.67px;"/><path d="M4504.61,1398.86l230.306,-58.105" style="fill:none;stroke:#000;stroke-width:6.67px;"/><path d="M4504.61,1423.19l230.306,-58.105" style="fill:none;stroke:#000;stroke-width:6.67px;"/><path d="M4478.88,1465.6l256.032,-53.782" style="fill:none;stroke:#000;stroke-width:6.67px;"/><path d="M4475.96,1499.99l264.459,-44.284" style="fill:none;stroke:#000;stroke-width:6.67px;"/><path d="M4475.96,1536.8l264.459,-35.214" style="fill:none;stroke:#000;stroke-width:6.67px;"/><path d="M4475.96,1560.37l264.459,-28.263" style="fill:none;stroke:#000;stroke-width:6.67px;"/><path d="M4475.96,1597.79l264.459,-19.925" style="fill:none;stroke:#000;stroke-width:6.67px;"/><path d="M4475.96,1638.24l266.59,-12.171" style="fill:none;stroke:#000;stroke-width:6.67px;"/><path d="M5072.2,1019.58l225.672,206.393l-46.038,487.235l13.595,113.602l-20.611,-1.475l-62.695,-547.13l-76.532,-53.415" style="fill:none;stroke:#000;stroke-width:6.67px;"/><path d="M5079.82,1189.72l22.308,10.972l70.652,647.156l-23.566,11.701l-69.394,-669.829" style="fill:none;stroke:#000;stroke-width:6.67px;"/><path d="M5149.22,1859.55l-32.087,0l-52.986,-538.601" style="fill:none;stroke:#000;stroke-width:6.67px;"/><path d="M5016.22,1800.47l91.854,-19.055" style="fill:none;stroke:#000;stroke-width:6.67px;"/><path d="M5236.39,1758.51l-67.675,16.027" style="fill:none;stroke:#000;stroke-width:6.67px;"/><path d="M5233.57,1735.25l-71.959,9.032" style="fill:none;stroke:#000;stroke-width:6.67px;"/><path d="M5229.44,1695.3l-72.09,3.437" style="fill:none;stroke:#000;stroke-width:6.67px;"/><path d="M5226.15,1669.09l-68.803,3.148" style="fill:none;stroke:#000;stroke-width:6.67px;"/><path d="M5220.6,1626.07l-71.384,1.574" style="fill:none;stroke:#000;stroke-width:6.67px;"/><path d="M5216.72,1586.26l-71.383,1.574" style="fill:none;stroke:#000;stroke-width:6.67px;"/><path d="M5212.61,1541.96l-73.083,-12.428" style="fill:none;stroke:#000;stroke-width:6.67px;"/><path d="M5207.11,1497.42l-74.934,-21.131" style="fill:none;stroke:#000;stroke-width:6.67px;"/><path d="M5201.83,1458.25l-74.007,-23.515" style="fill:none;stroke:#000;stroke-width:6.67px;"/><path d="M5195.91,1399.81l-73.223,-29.998" style="fill:none;stroke:#000;stroke-width:6.67px;"/><path d="M5191.75,1365.85l-72.894,-35.688" style="fill:none;stroke:#000;stroke-width:6.67px;"/><path d="M5185.67,1331.57l-73.793,-42.027" style="fill:none;stroke:#000;stroke-width:6.67px;"/><path d="M5183.94,1298.05l-75.867,-46.822" style="fill:none;stroke:#000;stroke-width:6.67px;"/><path d="M5016.22,1763.01l90.463,-13.625" style="fill:none;stroke:#000;stroke-width:6.67px;"/><path d="M5015.24,1732.57l0,67.907" style="fill:none;stroke:#000;stroke-width:6.67px;"/><path d="M5021.11,1706.59l79.928,-5.09" style="fill:none;stroke:#000;stroke-width:6.67px;"/><path d="M5021.11,1706.59l79.928,-5.09" style="fill:none;stroke:#000;stroke-width:6.67px;"/><path d="M5023.64,1672.24l74.815,-0.809" style="fill:none;stroke:#000;stroke-width:6.67px;"/><path d="M5029.01,1623.14l64.629,-0.559" style="fill:none;stroke:#000;stroke-width:6.67px;"/><path d="M5033.98,1570.27l54.692,4.898" style="fill:none;stroke:#000;stroke-width:6.67px;"/><path d="M5040.12,1522.41l43.586,7.115" style="fill:none;stroke:#000;stroke-width:6.67px;"/><path d="M5043.83,1494.61l38.331,6.978" style="fill:none;stroke:#000;stroke-width:6.67px;"/><path d="M5049.92,1451.71l26.09,4.002" style="fill:none;stroke:#000;stroke-width:6.67px;"/><path d="M5053.59,1407.5l18.609,3.469" style="fill:none;stroke:#000;stroke-width:6.67px;"/><path d="M4990.26,1732.57l24.915,-0l74.378,-633.594l189.851,154.382l-94.368,24.847" style="fill:none;stroke:#000;stroke-width:6.67px;"/><path d="M5006.31,1842.67c0.116,7.358 -5.763,13.426 -13.121,13.543c-7.358,0.116 -13.426,-5.763 -13.543,-13.121c-0.116,-7.358 5.763,-13.426 13.121,-13.543c7.358,-0.116 13.426,5.763 13.543,13.121Z" style="fill:none;stroke:#000;stroke-width:6.67px;stroke-linejoin:miter;stroke-miterlimit:10;"/><path d="M4991.2,1730.7c-0,-0 0.961,60.777 1.562,98.846" style="fill:none;stroke:#000;stroke-width:6.67px;"/><path d="M4598.79,1842.71c0.096,7.358 -5.801,13.41 -13.159,13.505c-7.358,0.096 -13.41,-5.801 -13.505,-13.159c-0.096,-7.358 5.801,-13.41 13.159,-13.505c7.358,-0.096 13.41,5.801 13.505,13.159Z" style="fill:none;stroke:#000;stroke-width:6.67px;stroke-linejoin:miter;stroke-miterlimit:10;"/><path d="M4583.94,1726.05c-0,0 0.832,64.139 1.343,103.502" style="fill:none;stroke:#000;stroke-width:6.67px;"/><path d="M4793.75,1842.73c0.084,7.358 -5.822,13.4 -13.18,13.484c-7.359,0.084 -13.401,-5.821 -13.485,-13.18c-0.084,-7.358 5.822,-13.401 13.18,-13.485c7.358,-0.084 13.401,5.822 13.485,13.181Z" style="fill:none;stroke:#000;stroke-width:6.67px;stroke-linejoin:miter;stroke-miterlimit:10;"/><path d="M4779.14,1730.7c-0,-0 0.694,60.775 1.129,98.844" style="fill:none;stroke:#000;stroke-width:6.67px;"/><path d="M2414.7,1127.66l919.767,-0" style="fill:none;stroke:#000;stroke-width:6.67px;"/><path d="M2414.7,1169.9l919.767,-0" style="fill:none;stroke:#000;stroke-width:6.67px;"/><circle cx="2458.1" cy="1085.41" r="13.333" style="fill:none;stroke:#000;stroke-width:6.67px;stroke-linejoin:miter;stroke-miterlimit:10;"/><circle cx="3287.23" cy="1085.41" r="13.333" style="fill:none;stroke:#000;stroke-width:6.67px;stroke-linejoin:miter;stroke-miterlimit:10;"/><path d="M2471.43,1085.41l802.465,-0" style="fill:none;stroke:#000;stroke-width:6.67px;"/><circle cx="2498.61" cy="1043.16" r="13.333" style="fill:none;stroke:#000;stroke-width:6.67px;stroke-linejoin:miter;stroke-miterlimit:10;"/><circle cx="3246.72" cy="1043.16" r="13.333" style="fill:none;stroke:#000;stroke-width:6.67px;stroke-linejoin:miter;stroke-miterlimit:10;"/><path d="M2511.94,1043.16l721.442,-0" style="fill:none;stroke:#000;stroke-width:6.67px;"/><circle cx="2547.56" cy="1000.92" r="13.333" style="fill:none;stroke:#000;stroke-width:6.67px;stroke-linejoin:miter;stroke-miterlimit:10;"/><circle cx="3196.53" cy="1000.92" r="13.333" style="fill:none;stroke:#000;stroke-width:6.67px;stroke-linejoin:miter;stroke-miterlimit:10;"/><path d="M2560.89,1000.92l622.307,-0" style="fill:none;stroke:#000;stroke-width:6.67px;"/><circle cx="2601.49" cy="958.668" r="13.333" style="fill:none;stroke:#000;stroke-width:6.67px;stroke-linejoin:miter;stroke-miterlimit:10;"/><circle cx="3143.84" cy="958.668" r="13.333" style="fill:none;stroke:#000;stroke-width:6.67px;stroke-linejoin:miter;stroke-miterlimit:10;"/><path d="M2614.82,958.668l515.686,-0" style="fill:none;stroke:#000;stroke-width:6.67px;"/><path d="M2601.96,854.643l-0,-142.8" style="fill:none;stroke:#000;stroke-width:6.67px;"/><path d="M2614.74,691.877l63.468,-31.837l370.261,0l81.334,33.222" style="fill:none;stroke:#000;stroke-width:6.67px;"/><path d="M3142.52,711.502l-0,143.428" style="fill:none;stroke:#000;stroke-width:6.67px;"/><path d="M2498.97,1029.07l-0,-146.821" style="fill:none;stroke:#000;stroke-width:6.67px;"/><path d="M2517.46,870.706l70.871,0" style="fill:none;stroke:#000;stroke-width:6.67px;"/><path d="M2617.24,870.706l95.012,0" style="fill:none;stroke:#000;stroke-width:6.67px;"/><path d="M2740.38,870.164l272.128,0.564" style="fill:none;stroke:#000;stroke-width:6.67px;"/><path d="M3040.34,870.486l88.833,0.09" style="fill:none;stroke:#000;stroke-width:6.67px;"/><path d="M3157.9,870.613l88.455,0.093l0,158.47" style="fill:none;stroke:#000;stroke-width:6.67px;"/><circle cx="2664.73" cy="912.953" r="13.333" style="fill:none;stroke:#000;stroke-width:6.67px;stroke-linejoin:miter;stroke-miterlimit:10;"/><circle cx="3080.6" cy="912.953" r="13.333" style="fill:none;stroke:#000;stroke-width:6.67px;stroke-linejoin:miter;stroke-miterlimit:10;"/><path d="M2678.06,912.953l389.21,0" style="fill:none;stroke:#000;stroke-width:6.67px;"/><path d="M2886.9,164.916c-0,-7.359 -5.975,-13.333 -13.334,-13.333c-7.358,-0 -13.333,5.974 -13.333,13.333c0,7.359 5.975,13.333 13.333,13.333c7.359,0 13.334,-5.974 13.334,-13.333Z" style="fill:none;stroke:#000;stroke-width:6.67px;stroke-linejoin:miter;stroke-miterlimit:10;"/><path d="M2873.57,178.249l0,38.576" style="fill:none;stroke:#000;stroke-width:6.67px;"/><rect x="2739.32" y="689.731" width="50.656" height="143.718" style="fill:none;stroke:#000;stroke-width:6.67px;"/><path d="M2653.43,672.211l0,-93.429c34.104,-22.67 68.208,-23.162 102.312,0l0,81.258" style="fill:none;stroke:#000;stroke-width:6.67px;"/><path d="M3080.64,672.211l0,-93.429c-34.104,-22.67 -68.208,-23.162 -102.312,0l0,81.258" style="fill:none;stroke:#000;stroke-width:6.67px;"/><rect x="2953" y="689.731" width="50.656" height="143.718" style="fill:none;stroke:#000;stroke-width:6.67px;"/><rect x="2842.31" y="689.731" width="50.656" height="143.718" style="fill:none;stroke:#000;stroke-width:6.67px;"/><rect x="2914.36" y="689.731" width="17.244" height="143.718" style="fill:none;stroke:#000;stroke-width:6.67px;"/><rect x="2805.58" y="689.731" width="17.244" height="143.718" style="fill:none;stroke:#000;stroke-width:6.67px;"/><path d="M2761.73,392.993c-0,-59.533 50.562,-105.294 112.842,-105.294c62.279,0 112.842,45.761 112.842,105.294" style="fill:none;stroke:#000;stroke-width:6.67px;"/><path d="M2813.68,359.066c8.981,-41.593 32.867,-71.367 60.892,-71.367c27.97,0 51.818,29.658 60.839,71.125" style="fill:none;stroke:#000;stroke-width:6.67px;"/><path d="M2833.99,294.166c5.985,-13.046 21.903,-22.384 40.579,-22.384c18.639,0 34.532,9.302 40.544,22.308" style="fill:none;stroke:#000;stroke-width:6.67px;"/><path d="M2755.74,435.894l0,-21.153c0,-35.681 53.247,-64.649 118.833,-64.649c65.585,-0 118.832,28.968 118.832,64.649l0,21.153" style="fill:none;stroke:#000;stroke-width:6.67px;"/><path d="M2874.57,287.699l-0,61.25" style="fill:none;stroke:#000;stroke-width:6.67px;"/><path d="M2745.66,453.275c8.738,-29.929 63.151,-53.01 128.884,-53.01c65.765,-0 120.2,23.103 128.897,53.054" style="fill:none;stroke:#000;stroke-width:6.67px;"/><path d="M2729.83,475.591c9.811,-29.929 70.907,-53.01 144.713,-53.01c73.842,-0 134.962,23.103 144.728,53.054" style="fill:none;stroke:#000;stroke-width:6.67px;"/><path d="M3019.27,475.635l-0,6.597" style="fill:none;stroke:#000;stroke-width:6.67px;"/><path d="M2729.83,475.591l0,7.005" style="fill:none;stroke:#000;stroke-width:6.67px;"/><path d="M2739.77,486.199c16.766,-16.537 48.469,-29.758 87.289,-35.377c14.889,-2.155 30.864,-3.325 47.482,-3.325c10.074,0 19.91,0.43 29.412,1.249c48.253,4.157 86.937,17.404 105.075,36.204" style="fill:none;stroke:#000;stroke-width:6.67px;"/><path d="M2748.17,572.379c16.943,-12.667 43.994,-22.467 76.333,-27.304c14.407,-2.155 29.864,-3.325 45.944,-3.325c9.747,-0 19.265,0.43 28.46,1.248c36.945,3.29 70.146,15.341 90.47,28.505" style="fill:none;stroke:#000;stroke-width:6.67px;"/><path d="M2850.61,222.905c6.835,-3.025 15.073,-4.792 23.937,-4.792c8.035,0 15.556,1.452 21.984,3.977" style="fill:none;stroke:#000;stroke-width:6.67px;"/><path d="M2882.86,271.782l0,-51.925" style="fill:none;stroke:#000;stroke-width:6.67px;"/><path d="M2896.53,275.22l-0,-51.925" style="fill:none;stroke:#000;stroke-width:6.67px;"/><path d="M2864.28,271.782l0,-51.925" style="fill:none;stroke:#000;stroke-width:6.67px;"/><path d="M2850.61,276.096l0,-51.926" style="fill:none;stroke:#000;stroke-width:6.67px;"/><path d="M2661.46,573.864c-0,0 -0,-18.466 -0,-37.493c-0,-22.678 18.384,-41.063 41.062,-41.063c0.001,0 0.001,0 0.001,0c4.765,0 9.34,0.812 13.596,2.305" style="fill:none;stroke:#000;stroke-width:6.67px;"/><path d="M2733.87,510.261c6.223,7.198 9.715,15.848 9.715,26.11c-0,19.027 -0,35.09 -0,35.09" style="fill:none;stroke:#000;stroke-width:6.67px;"/><path d="M2994.5,569.149c0,-0 0,-13.751 0,-32.778c0,-11.782 4.963,-22.406 12.912,-29.894" style="fill:none;stroke:#000;stroke-width:6.67px;"/><path d="M3031.22,495.535c1.427,-0.15 2.876,-0.227 4.342,-0.227c0,0 0,0 0,0c22.679,0 41.063,18.385 41.063,41.063c0,19.027 0,39.435 0,39.435" style="fill:none;stroke:#000;stroke-width:6.67px;"/><path d="M1668.54,1313.94l62.084,-29.615" style="fill:none;stroke:#000;stroke-width:6.67px;"/><path d="M1757.17,1278.2l105.535,0.49" style="fill:none;stroke:#000;stroke-width:6.67px;"/><path d="M1888.88,1284.8l43.223,21.936" style="fill:none;stroke:#000;stroke-width:6.67px;"/><path d="M1958.88,1313.12l74.551,-0" style="fill:none;stroke:#000;stroke-width:6.67px;"/><path d="M1655.18,1301.75l0,-56.053l-15.664,-54.05" style="fill:none;stroke:#000;stroke-width:6.67px;"/><path d="M2388.08,1313.41l-58.875,-28.083" style="fill:none;stroke:#000;stroke-width:6.67px;"/><path d="M2302.68,1278.2l-102.636,0" style="fill:none;stroke:#000;stroke-width:6.67px;"/><path d="M2172.68,1282.86l-46.328,23.512" style="fill:none;stroke:#000;stroke-width:6.67px;"/><path d="M2101.87,1313.12l-77.555,-0" style="fill:none;stroke:#000;stroke-width:6.67px;"/><path d="M1639.52,1191.64l0.653,-99.08l39.056,-19.227l-0,45.782l17.491,-8.634l0,-44.96l51.961,-24.409l0,55.933l26.804,-0l-0,-58.544l54.544,0l-0,58.338l22.403,0l-0,-58.513l52.788,34.439l-0,51.233l17.751,7.124l-0,-41.107l54.641,0l0,47.474l19.688,-0l0,-48.14l36.13,0" style="fill:none;stroke:#000;stroke-width:6.67px;"/><path d="M2415.26,1189.72l-0,-97.151l-39.057,-19.227l0,45.782l-17.491,-8.634l-0,-44.96l-51.961,-24.409l-0,55.933l-26.803,-0l-0,-58.544l-54.545,0l0,58.338l-22.403,0l0,-58.513l-52.787,34.439l-0,51.233l-17.752,7.124l0,-41.107l-54.641,0l-0,47.474l-19.688,-0l-0,-48.14l-36.13,0" style="fill:none;stroke:#000;stroke-width:6.67px;"/><path d="M1931.35,1843.71c-0,7.359 5.974,13.333 13.333,13.333c7.359,0 13.333,-5.974 13.333,-13.333c0,-7.359 -5.974,-13.333 -13.333,-13.333c-7.359,-0 -13.333,5.974 -13.333,13.333Z" style="fill:none;stroke:#000;stroke-width:6.67px;stroke-linejoin:miter;stroke-miterlimit:10;"/><path d="M1944.69,1830.38c0,-112.596 0,-503.604 0,-503.604" style="fill:none;stroke:#000;stroke-width:6.67px;"/><path d="M2101.77,1843.71c-0,7.359 5.974,13.333 13.333,13.333c7.359,0 13.333,-5.974 13.333,-13.333c0,-7.359 -5.974,-13.333 -13.333,-13.333c-7.359,-0 -13.333,5.974 -13.333,13.333Z" style="fill:none;stroke:#000;stroke-width:6.67px;stroke-linejoin:miter;stroke-miterlimit:10;"/><path d="M2115.1,1830.38c-0,-112.144 -0,-500.317 -0,-500.317" style="fill:none;stroke:#000;stroke-width:6.67px;"/><path d="M2115.1,1301.55l-0,-100.494" style="fill:none;stroke:#000;stroke-width:6.67px;"/><path d="M1943.83,1298.57l0,-100.494" style="fill:none;stroke:#000;stroke-width:6.67px;"/><path d="M2171.26,1843.71c-0,7.359 5.974,13.333 13.333,13.333c7.359,0 13.333,-5.974 13.333,-13.333c0,-7.359 -5.974,-13.333 -13.333,-13.333c-7.359,-0 -13.333,5.974 -13.333,13.333Z" style="fill:none;stroke:#000;stroke-width:6.67px;stroke-linejoin:miter;stroke-miterlimit:10;"/><path d="M2184.59,1830.38c0,-117.228 0,-537.934 0,-537.934" style="fill:none;stroke:#000;stroke-width:6.67px;"/><path d="M2303.67,1843.71c0,7.359 5.975,13.333 13.333,13.333c7.359,0 13.334,-5.974 13.334,-13.333c-0,-7.359 -5.975,-13.333 -13.334,-13.333c-7.358,-0 -13.333,5.974 -13.333,13.333Z" style="fill:none;stroke:#000;stroke-width:6.67px;stroke-linejoin:miter;stroke-miterlimit:10;"/><path d="M2317,1830.38c0,-117.251 0,-538.109 0,-538.109" style="fill:none;stroke:#000;stroke-width:6.67px;"/><path d="M1862.55,1842.88c-0,7.359 5.974,13.333 13.333,13.333c7.359,0 13.333,-5.974 13.333,-13.333c0,-7.359 -5.974,-13.334 -13.333,-13.334c-7.359,0 -13.333,5.975 -13.333,13.334Z" style="fill:none;stroke:#000;stroke-width:6.67px;stroke-linejoin:miter;stroke-miterlimit:10;"/><path d="M1875.88,1829.55c-0,-117.156 -0,-537.401 -0,-537.401" style="fill:none;stroke:#000;stroke-width:6.67px;"/><path d="M1730.13,1842.88c0,7.359 5.975,13.333 13.334,13.333c7.358,0 13.333,-5.974 13.333,-13.333c-0,-7.359 -5.975,-13.334 -13.333,-13.334c-7.359,0 -13.334,5.975 -13.334,13.334Z" style="fill:none;stroke:#000;stroke-width:6.67px;stroke-linejoin:miter;stroke-miterlimit:10;"/><path d="M1743.47,1829.55l-0,-537.367" style="fill:none;stroke:#000;stroke-width:6.67px;"/><path d="M2402.56,1371.64l0,-41.448" style="fill:none;stroke:#000;stroke-width:6.67px;"/><path d="M2402.56,1302.47l0,-55.142l12.702,-55.679" style="fill:none;stroke:#000;stroke-width:6.67px;"/><path d="M1812.27,1716.83l-0,78.773" style="fill:none;stroke:#000;stroke-width:6.67px;"/><path d="M2253.62,1716.83l-0,78.773" style="fill:none;stroke:#000;stroke-width:6.67px;"/><path d="M1655.18,1329.29l0,207.512" style="fill:none;stroke:#000;stroke-width:6.67px;"/><path d="M2253.62,1497.42l-0,78.773" style="fill:none;stroke:#000;stroke-width:6.67px;"/><path d="M2033.43,1497.42l0,78.773" style="fill:none;stroke:#000;stroke-width:6.67px;"/><path d="M2085.2,1324.78l-0,35.903" style="fill:none;stroke:#000;stroke-width:6.67px;"/><path d="M1974.59,1324.78l0,35.903" style="fill:none;stroke:#000;stroke-width:6.67px;"/><path d="M1910.28,1721.7l0,78.773" style="fill:none;stroke:#000;stroke-width:6.67px;"/><path d="M2150.18,1721.7l0,78.773" style="fill:none;stroke:#000;stroke-width:6.67px;"/><path d="M1812.27,1292.86l-0,78.774" style="fill:none;stroke:#000;stroke-width:6.67px;"/><path d="M2253.62,1292.86l-0,78.774" style="fill:none;stroke:#000;stroke-width:6.67px;"/><path d="M1639.52,1191.64l94.748,-42.113l141.615,0l56.022,28.711" style="fill:none;stroke:#000;stroke-width:6.67px;"/><path d="M1958.58,1184.45l74.845,0" style="fill:none;stroke:#000;stroke-width:6.67px;"/><path d="M2415.26,1191.64l-94.748,-42.113l-141.615,0l-53.711,27.258" style="fill:none;stroke:#000;stroke-width:6.67px;"/><path d="M2102.4,1184.45l-81.053,0" style="fill:none;stroke:#000;stroke-width:6.67px;"/><path d="M1138.89,1842.88c0,7.359 -5.974,13.333 -13.333,13.333c-7.359,0 -13.333,-5.974 -13.333,-13.333c-0,-7.359 5.974,-13.333 13.333,-13.333c7.359,-0 13.333,5.974 13.333,13.333Z" style="fill:none;stroke:#000;stroke-width:6.67px;stroke-linejoin:miter;stroke-miterlimit:10;"/><path d="M1125.55,1717.17c-0,-0 -0,70.604 -0,112.372" style="fill:none;stroke:#000;stroke-width:6.67px;"/><path d="M1416.61,1842.88c0,7.359 -5.974,13.333 -13.333,13.333c-7.359,0 -13.333,-5.974 -13.333,-13.333c-0,-7.359 5.974,-13.333 13.333,-13.333c7.359,-0 13.333,5.974 13.333,13.333Z" style="fill:none;stroke:#000;stroke-width:6.67px;stroke-linejoin:miter;stroke-miterlimit:10;"/><path d="M1403.28,1717.17c-0,-0 -0,70.604 -0,112.372" style="fill:none;stroke:#000;stroke-width:6.67px;"/><path d="M1289.27,1842.88c-0,7.359 -5.975,13.333 -13.334,13.333c-7.358,0 -13.333,-5.974 -13.333,-13.333c0,-7.359 5.975,-13.334 13.333,-13.334c7.359,0 13.334,5.975 13.334,13.334Z" style="fill:none;stroke:#000;stroke-width:6.67px;stroke-linejoin:miter;stroke-miterlimit:10;"/><path d="M1275.94,1718.86l0,110.689" style="fill:none;stroke:#000;stroke-width:6.67px;"/><path d="M1567,1842.88c-0,7.359 -5.975,13.333 -13.333,13.333c-7.359,0 -13.334,-5.974 -13.334,-13.333c0,-7.359 5.975,-13.334 13.334,-13.334c7.358,0 13.333,5.975 13.333,13.334Z" style="fill:none;stroke:#000;stroke-width:6.67px;stroke-linejoin:miter;stroke-miterlimit:10;"/><path d="M1553.67,1718.86l-0,110.689" style="fill:none;stroke:#000;stroke-width:6.67px;"/><path d="M1087.58,1636.78l0,-301.583" style="fill:none;stroke:#000;stroke-width:6.67px;"/><path d="M1313.8,1637.13l0,-301.312" style="fill:none;stroke:#000;stroke-width:6.67px;"/><path d="M1313.8,1465.6l51.11,10.686" style="fill:none;stroke:#000;stroke-width:6.67px;"/><path d="M1306.39,1663.83l-105.702,184.015l-106.187,-184.859" style="fill:none;stroke:#000;stroke-width:6.67px;"/><path d="M1584.12,1663.83l-105.702,184.015l-106.187,-184.859" style="fill:none;stroke:#000;stroke-width:6.67px;"/><path d="M1101.69,1650.93l197.84,-0" style="fill:none;stroke:#000;stroke-width:6.67px;"/><path d="M1379.42,1650.93l197.84,-0" style="fill:none;stroke:#000;stroke-width:6.67px;"/><path d="M1300.13,1320.94l-198.236,0" style="fill:none;stroke:#000;stroke-width:6.67px;"/><path d="M1576.16,1320.94l-198.235,0" style="fill:none;stroke:#000;stroke-width:6.67px;"/><path d="M1099.4,1313.25l101.286,-65.923l100.981,65.725" style="fill:none;stroke:#000;stroke-width:6.67px;"/><path d="M1375.43,1313.25l101.286,-65.923l100.981,65.725" style="fill:none;stroke:#000;stroke-width:6.67px;"/><path d="M1364.29,1637.28l-0,-301.738" style="fill:none;stroke:#000;stroke-width:6.67px;"/><path d="M1590.51,1637.28l-0,-301.738" style="fill:none;stroke:#000;stroke-width:6.67px;"/><path d="M1698.92,1842.84c0.023,7.359 -5.932,13.353 -13.291,13.376c-7.359,0.024 -13.352,-5.932 -13.376,-13.291c-0.023,-7.359 5.932,-13.352 13.291,-13.375c7.359,-0.024 13.352,5.932 13.376,13.29Z" style="fill:none;stroke:#000;stroke-width:6.67px;stroke-linejoin:miter;stroke-miterlimit:10;"/><path d="M1590.51,1517.31l94.107,20.756c0,0 0.674,211.636 0.928,291.477" style="fill:none;stroke:#000;stroke-width:6.67px;"/><circle cx="1087.58" cy="1650.93" r="13.408" style="fill:none;stroke:#000;stroke-width:6.67px;"/><circle cx="1365.3" cy="1650.93" r="13.408" style="fill:none;stroke:#000;stroke-width:6.67px;"/><circle cx="1087.58" cy="1320.94" r="13.408" style="fill:none;stroke:#000;stroke-width:6.67px;"/><circle cx="1363.6" cy="1320.94" r="13.408" style="fill:none;stroke:#000;stroke-width:6.67px;"/><circle cx="1313.82" cy="1650.93" r="13.408" style="fill:none;stroke:#000;stroke-width:6.67px;"/><circle cx="1591.54" cy="1650.93" r="13.408" style="fill:none;stroke:#000;stroke-width:6.67px;"/><circle cx="1313.82" cy="1320.94" r="13.408" style="fill:none;stroke:#000;stroke-width:6.67px;"/><circle cx="1589.84" cy="1320.94" r="13.408" style="fill:none;stroke:#000;stroke-width:6.67px;"/><circle cx="1655.22" cy="1531.8" r="13.408" style="fill:#fff;stroke:#000;stroke-width:6.67px;"/><path d="M397.775,1842.85c-0.018,7.359 5.943,13.347 13.302,13.364c7.359,0.017 13.347,-5.943 13.364,-13.302c0.017,-7.359 -5.943,-13.347 -13.302,-13.364c-7.359,-0.018 -13.347,5.943 -13.364,13.302Z" style="fill:none;stroke:#000;stroke-width:6.67px;stroke-linejoin:miter;stroke-miterlimit:10;"/><path d="M411.139,1829.55c0.177,-75.992 0.63,-270.072 0.63,-270.072l-17.281,-21.942l657.635,-119.797l34.506,8.706" style="fill:none;stroke:#000;stroke-width:6.67px;"/><path d="M604.552,1842.83c-0.027,7.359 5.927,13.355 13.285,13.381c7.359,0.026 13.355,-5.927 13.381,-13.286c0.026,-7.359 -5.927,-13.354 -13.286,-13.38c-7.359,-0.027 -13.354,5.927 -13.38,13.285Z" style="fill:none;stroke:#000;stroke-width:6.67px;stroke-linecap:butt;stroke-linejoin:miter;stroke-miterlimit:10;"/><path d="M617.932,1829.55c0.116,-32.559 0.284,-79.962 0.284,-79.962" style="fill:none;stroke:#000;stroke-width:6.67px;stroke-linecap:butt;"/><path d="M618.354,1711.9l0.172,-49.272l320.418,-0l0.007,48.893" style="fill:none;stroke:#000;stroke-width:6.67px;stroke-linecap:square;"/><path d="M952.277,1842.88c0,7.359 -5.974,13.333 -13.333,13.333c-7.359,0 -13.333,-5.974 -13.333,-13.333c-0,-7.359 5.974,-13.334 13.333,-13.334c7.359,0 13.333,5.975 13.333,13.334Z" style="fill:none;stroke:#000;stroke-width:6.67px;stroke-linejoin:miter;stroke-miterlimit:10;"/><path d="M938.944,1754.42l0,75.124" style="fill:none;stroke:#000;stroke-width:6.67px;"/><path d="M616.065,1711.83c11.446,-0 20.739,9.292 20.739,20.738c-0,11.446 -9.293,20.738 -20.739,20.738" style="fill:none;stroke:#000;stroke-width:6.67px;stroke-linecap:butt;"/><path d="M938.944,1711.83c11.446,-0 20.738,9.292 20.738,20.738c0,11.446 -9.292,20.738 -20.738,20.738" style="fill:none;stroke:#000;stroke-width:6.67px;stroke-linecap:square;"/><path d="M411.749,1732.57l712.946,-0" style="fill:none;stroke:#000;stroke-width:6.67px;"/><path d="M1276.07,1732.57l126.079,-0" style="fill:none;stroke:#000;stroke-width:6.67px;"/><path d="M3182.39,1842.88c0,7.359 5.975,13.333 13.334,13.333c7.359,0 13.333,-5.974 13.333,-13.333c0,-7.359 -5.974,-13.334 -13.333,-13.334c-7.359,0 -13.334,5.975 -13.334,13.334Z" style="fill:none;stroke:#000;stroke-width:6.67px;stroke-linejoin:miter;stroke-miterlimit:10;"/><path d="M3195.72,1829.55c-0,-23.301 -0,-51.676 -0,-51.676" style="fill:none;stroke:#000;stroke-width:6.67px;"/><path d="M2532.02,1842.88c0,7.359 5.975,13.333 13.334,13.333c7.358,0 13.333,-5.974 13.333,-13.333c-0,-7.359 -5.975,-13.334 -13.333,-13.334c-7.359,0 -13.334,5.975 -13.334,13.334Z" style="fill:none;stroke:#000;stroke-width:6.67px;stroke-linejoin:miter;stroke-miterlimit:10;"/><path d="M2545.35,1829.55c-0,-23.136 -0,-51.211 -0,-51.211" style="fill:none;stroke:#000;stroke-width:6.67px;"/><path d="M2974.56,1842.88c-0,7.359 5.974,13.333 13.333,13.333c7.359,0 13.334,-5.974 13.334,-13.333c-0,-7.359 -5.975,-13.334 -13.334,-13.334c-7.359,0 -13.333,5.975 -13.333,13.334Z" style="fill:none;stroke:#000;stroke-width:6.67px;stroke-linejoin:miter;stroke-miterlimit:10;"/><path d="M2987.89,1829.55c0,-23.301 0,-51.676 0,-51.676" style="fill:none;stroke:#000;stroke-width:6.67px;"/><path d="M2664.01,1842.86c-0.008,7.359 5.96,13.34 13.318,13.348c7.359,0.008 13.34,-5.959 13.349,-13.318c0.008,-7.359 -5.96,-13.34 -13.319,-13.349c-7.358,-0.008 -13.34,5.96 -13.348,13.319Z" style="fill:none;stroke:#000;stroke-width:6.67px;stroke-linejoin:miter;stroke-miterlimit:10;"/><path d="M2775.85,1842.88c-0,7.359 -5.975,13.333 -13.334,13.333c-7.358,0 -13.333,-5.974 -13.333,-13.333c0,-7.359 5.975,-13.334 13.333,-13.334c7.359,0 13.334,5.975 13.334,13.334Z" style="fill:none;stroke:#000;stroke-width:6.67px;stroke-linejoin:miter;stroke-miterlimit:10;"/><path d="M2677.36,1829.55c0.054,-47.628 0.152,-135.215 0.152,-135.215l85.002,0l0,135.215" style="fill:none;stroke:#000;stroke-width:6.67px;"/><path d="M2808.37,1842.86c-0.008,7.359 5.959,13.34 13.318,13.348c7.359,0.008 13.34,-5.959 13.349,-13.318c0.008,-7.359 -5.96,-13.34 -13.319,-13.349c-7.359,-0.008 -13.34,5.96 -13.348,13.319Z" style="fill:none;stroke:#000;stroke-width:6.67px;stroke-linejoin:miter;stroke-miterlimit:10;"/><path d="M2920.21,1842.88c-0,7.359 -5.975,13.333 -13.334,13.333c-7.359,0 -13.333,-5.974 -13.333,-13.333c0,-7.359 5.974,-13.334 13.333,-13.334c7.359,0 13.334,5.975 13.334,13.334Z" style="fill:none;stroke:#000;stroke-width:6.67px;stroke-linejoin:miter;stroke-miterlimit:10;"/><path d="M2821.72,1829.55c0.054,-47.628 0.152,-135.215 0.152,-135.215l85.002,0l0,135.215" style="fill:none;stroke:#000;stroke-width:6.67px;"/><path d="M2379.5,1842.82c-0.032,7.358 5.917,13.359 13.276,13.39c7.358,0.032 13.358,-5.917 13.39,-13.276c0.032,-7.359 -5.917,-13.359 -13.276,-13.39c-7.359,-0.032 -13.359,5.917 -13.39,13.276Z" style="fill:none;stroke:#000;stroke-width:6.67px;stroke-linejoin:miter;stroke-miterlimit:10;"/><path d="M3297.92,1842.88c-0,7.359 -5.975,13.333 -13.334,13.333c-7.359,0 -13.333,-5.974 -13.333,-13.333c-0,-7.359 5.974,-13.334 13.333,-13.334c7.359,0 13.334,5.975 13.334,13.334Z" style="fill:none;stroke:#000;stroke-width:6.67px;stroke-linejoin:miter;stroke-miterlimit:10;"/><path d="M2392.89,1829.55c0.436,-101.538 1.829,-425.994 1.829,-425.994l889.864,-0l0,425.993" style="fill:none;stroke:#000;stroke-width:6.67px;"/><path d="M2392.76,1403.55l-29.098,-0l89.229,-73.394l90.335,-0l66.248,-46.024l578.465,0l133.014,119.418l-47.082,-0" style="fill:none;stroke:#000;stroke-width:6.67px;"/><rect x="2498.54" y="1446.2" width="96.293" height="90.603" style="fill:none;stroke:#000;stroke-width:6.67px;"/><rect x="3147.57" y="1446.2" width="96.293" height="90.603" style="fill:none;stroke:#000;stroke-width:6.67px;"/><rect x="2498.54" y="1687.27" width="96.293" height="90.603" style="fill:none;stroke:#000;stroke-width:6.67px;"/><rect x="2939.27" y="1687.27" width="96.293" height="90.603" style="fill:none;stroke:#000;stroke-width:6.67px;"/><rect x="2821.06" y="1446.2" width="96.293" height="90.603" style="fill:none;stroke:#000;stroke-width:6.67px;"/><rect x="3147.57" y="1687.27" width="96.293" height="90.603" style="fill:none;stroke:#000;stroke-width:6.67px;"/><path d="M4462.44,1842.88c0,7.359 5.975,13.333 13.334,13.333c7.358,0 13.333,-5.974 13.333,-13.333c-0,-7.359 -5.975,-13.334 -13.333,-13.334c-7.359,0 -13.334,5.975 -13.334,13.334Z" style="fill:none;stroke:#000;stroke-width:6.67px;stroke-linejoin:miter;stroke-miterlimit:10;"/><path d="M4475.78,1829.55c-0,-91.305 -0,-359.622 -0,-359.622l28.833,-44.011l-1.261,-73.194l-661.663,0.068l-0.338,98.921" style="fill:none;stroke:#000;stroke-width:6.67px;"/><path d="M4272.09,1843.1c-0.001,7.359 5.973,13.334 13.332,13.335c7.359,0.001 13.334,-5.973 13.335,-13.332c0.001,-7.358 -5.973,-13.334 -13.332,-13.335c-7.358,-0.001 -13.334,5.973 -13.335,13.332Z" style="fill:none;stroke:#000;stroke-width:6.67px;stroke-linejoin:miter;stroke-miterlimit:10;"/><path d="M4430.78,1842.88c-0.001,7.358 -5.977,13.332 -13.335,13.331c-7.359,-0.001 -13.333,-5.976 -13.332,-13.335c0.001,-7.359 5.976,-13.333 13.335,-13.332c7.359,0.001 13.333,5.977 13.332,13.336Z" style="fill:none;stroke:#000;stroke-width:6.67px;stroke-linejoin:miter;stroke-miterlimit:10;"/><path d="M4285.42,1829.76c0.012,-91.305 0.047,-359.62 0.047,-359.62l27.208,-44.057l80.573,-0.133l24.246,43.971c-0,-0 -0.035,268.315 -0.047,359.62" style="fill:none;stroke:#000;stroke-width:6.67px;"/><path d="M4087.4,1843.4c-0.001,7.359 5.972,13.334 13.331,13.335c7.359,0.001 13.334,-5.973 13.335,-13.331c0.001,-7.359 -5.972,-13.335 -13.331,-13.336c-7.359,-0.001 -13.334,5.973 -13.335,13.332Z" style="fill:none;stroke:#000;stroke-width:6.67px;stroke-linejoin:miter;stroke-miterlimit:10;"/><path d="M4246.1,1843.19c-0.001,7.359 -5.976,13.332 -13.335,13.331c-7.359,-0.001 -13.333,-5.976 -13.332,-13.335c0.001,-7.359 5.976,-13.332 13.335,-13.331c7.359,0.001 13.333,5.976 13.332,13.335Z" style="fill:none;stroke:#000;stroke-width:6.67px;stroke-linejoin:miter;stroke-miterlimit:10;"/><path d="M4100.74,1830.07c0.012,-91.305 0.047,-359.62 0.047,-359.62l27.207,-44.057l80.574,-0.133l24.245,43.971c0,-0 -0.035,268.315 -0.047,359.621" style="fill:none;stroke:#000;stroke-width:6.67px;"/><path d="M4061.41,1843.49c-0.001,7.359 -5.976,13.332 -13.335,13.331c-7.359,-0.001 -13.333,-5.976 -13.332,-13.335c0.001,-7.359 5.977,-13.332 13.335,-13.331c7.359,0.001 13.333,5.976 13.332,13.335Z" style="fill:none;stroke:#000;stroke-width:6.67px;stroke-linejoin:miter;stroke-miterlimit:10;"/><path d="M3916.08,1621.4l0.02,-150.64l27.207,-44.057l80.574,-0.133l24.245,43.971c0,0 -0.035,268.315 -0.047,359.621" style="fill:none;stroke:#000;stroke-width:6.67px;"/><path d="M4159.44,1163.79l380.284,172.28l-751.745,-0l371.461,-172.28Z" style="fill:none;stroke:#000;stroke-width:6.67px;"/><path d="M4167.29,1710.7c8.973,0 17.579,3.565 23.923,9.909c6.345,6.345 9.91,14.951 9.91,23.924c-0,44.15 -0,115.846 -0,115.846l-67.666,-0c0,-0 0,-71.696 0,-115.846c0,-8.973 3.565,-17.579 9.91,-23.924c6.344,-6.344 14.95,-9.909 23.923,-9.909l0,0Z" style="fill:none;stroke:#000;stroke-width:6.67px;"/><path d="M4167.65,1497.42c18.834,-0 34.101,15.267 34.101,34.1c-0,41.385 -0,105.704 -0,105.704l-68.293,-0c0,-0 0,-64.319 0,-105.704c0,-18.833 15.268,-34.1 34.101,-34.1l0.091,-0Z" style="fill:none;stroke:#000;stroke-width:6.67px;"/><path d="M3982.15,1497.42c18.833,-0 34.1,15.267 34.1,34.1c0,41.385 0,105.704 0,105.704l-68.292,-0c-0,-0 -0,-64.319 -0,-105.704c-0,-18.833 15.267,-34.1 34.1,-34.1l0.092,-0Z" style="fill:none;stroke:#000;stroke-width:6.67px;"/><path d="M4351.5,1497.42c18.833,-0 34.101,15.267 34.101,34.1c-0,41.385 -0,105.704 -0,105.704l-68.293,-0c-0,-0 -0,-64.319 -0,-105.704c-0,-18.833 15.267,-34.1 34.1,-34.1l0.092,-0Z" style="fill:none;stroke:#000;stroke-width:6.67px;"/><path d="M4062.86,897.628c0,-37.619 44.183,-68.161 98.604,-68.161c54.422,0 98.605,30.542 98.605,68.161" style="fill:none;stroke:#000;stroke-width:6.67px;"/><path d="M4076.98,911.885c17.268,-19.777 48.656,-33.012 84.481,-33.012c36.932,-0 69.148,14.065 86.041,34.863" style="fill:none;stroke:#000;stroke-width:6.67px;"/><path d="M4062.86,1207.85l0,-45.698" style="fill:none;stroke:#000;stroke-width:6.67px;"/><path d="M4075.58,1149.53l169.588,0" style="fill:none;stroke:#000;stroke-width:6.67px;"/><path d="M4260.07,1163.07l-0,46.482" style="fill:none;stroke:#000;stroke-width:6.67px;"/><path d="M4070.01,1136.3l-0,-66.641c62.805,-28.489 123.756,-28.166 182.915,0l0,66.641" style="fill:none;stroke:#000;stroke-width:6.67px;"/><circle cx="4162.27" cy="1096.06" r="37.097" style="fill:none;stroke:#000;stroke-width:6.67px;"/><path d="M4077.04,912.953l0,152.987" style="fill:none;stroke:#000;stroke-width:6.67px;"/><path d="M4247.51,914.278l0,152.688" style="fill:none;stroke:#000;stroke-width:6.67px;"/><path d="M4228.14,897.628l0,161.071" style="fill:none;stroke:#000;stroke-width:6.67px;"/><path d="M4096.41,897.628l-0,161.236" style="fill:none;stroke:#000;stroke-width:6.67px;"/><path d="M4113.64,889.871l0,162.477" style="fill:none;stroke:#000;stroke-width:6.67px;"/><path d="M4210.91,889.871l-0,162.477" style="fill:none;stroke:#000;stroke-width:6.67px;"/><path d="M4125.18,885.937l-0,165.26" style="fill:none;stroke:#000;stroke-width:6.67px;"/><path d="M4195.88,885.937l-0,165.005" style="fill:none;stroke:#000;stroke-width:6.67px;"/><g><path d="M5401.49,1526.43c-0,-7.358 5.974,-13.333 13.333,-13.333c7.359,0 13.333,5.975 13.333,13.333c0,7.359 -5.974,13.334 -13.333,13.334c-7.359,-0 -13.333,-5.975 -13.333,-13.334Z" style="fill:none;stroke:#000;stroke-width:6.67px;stroke-linejoin:miter;stroke-miterlimit:10;"/><path d="M5414.82,1859.55l0,-319.784" style="fill:none;stroke:#000;stroke-width:6.67px;"/><path d="M5363.48,1622.38c6.714,3.012 14.61,0.006 17.622,-6.709c3.011,-6.714 0.005,-14.61 -6.709,-17.622c-6.715,-3.011 -14.611,-0.005 -17.623,6.709c-3.011,6.715 -0.005,14.611 6.71,17.622Z" style="fill:none;stroke:#000;stroke-width:6.67px;stroke-linejoin:miter;stroke-miterlimit:10;"/><path d="M5464.95,1622.94c-6.747,2.938 -14.61,-0.155 -17.548,-6.902c-2.938,-6.747 0.155,-14.609 6.902,-17.547c6.747,-2.938 14.61,0.155 17.548,6.902c2.937,6.747 -0.155,14.61 -6.902,17.547Z" style="fill:none;stroke:#000;stroke-width:6.67px;stroke-linejoin:miter;stroke-miterlimit:10;"/><path d="M5356.77,1604.76c-30.963,-19.382 -51.574,-53.796 -51.574,-92.987c0,-60.501 49.12,-109.621 109.621,-109.621c60.501,0 109.621,49.12 109.621,109.621c-0,39.618 -21.062,74.355 -52.59,93.616" style="fill:none;stroke:#000;stroke-width:6.67px;"/></g><circle cx="1655.22" cy="1531.8" r="13.408" style="fill:none;stroke:#000;stroke-width:6.67px;"/><circle cx="1655.22" cy="1315.72" r="13.408" style="fill:none;stroke:#000;stroke-width:6.67px;"/><circle cx="2116.04" cy="1315.72" r="13.408" style="fill:none;stroke:#000;stroke-width:6.67px;"/><circle cx="2116.04" cy="1187.05" r="13.408" style="fill:none;stroke:#000;stroke-width:6.67px;"/><circle cx="1743.47" cy="1278.2" r="13.408" style="fill:none;stroke:#000;stroke-width:6.67px;"/><circle cx="2185.68" cy="1278.2" r="13.408" style="fill:none;stroke:#000;stroke-width:6.67px;"/><circle cx="2503" cy="868.956" r="13.408" style="fill:none;stroke:#000;stroke-width:6.67px;"/><circle cx="3026.58" cy="868.956" r="13.408" style="fill:none;stroke:#000;stroke-width:6.67px;"/><circle cx="3143.28" cy="868.956" r="13.408" style="fill:none;stroke:#000;stroke-width:6.67px;"/><circle cx="3143.28" cy="697.822" r="13.408" style="fill:none;stroke:#000;stroke-width:6.67px;"/><circle cx="2726.3" cy="868.956" r="13.408" style="fill:none;stroke:#000;stroke-width:6.67px;"/><circle cx="2602.01" cy="868.956" r="13.408" style="fill:none;stroke:#000;stroke-width:6.67px;"/><circle cx="2602.01" cy="697.822" r="13.408" style="fill:none;stroke:#000;stroke-width:6.67px;"/><circle cx="2730.17" cy="496.561" r="13.408" style="fill:none;stroke:#000;stroke-width:6.67px;"/><circle cx="3017.43" cy="496.561" r="13.408" style="fill:none;stroke:#000;stroke-width:6.67px;"/><circle cx="1876.45" cy="1278.2" r="13.408" style="fill:none;stroke:#000;stroke-width:6.67px;"/><circle cx="2317" cy="1278.2" r="13.408" style="fill:none;stroke:#000;stroke-width:6.67px;"/><circle cx="1944.69" cy="1312.67" r="13.408" style="fill:none;stroke:#000;stroke-width:6.67px;"/><circle cx="1944.69" cy="1184" r="13.408" style="fill:none;stroke:#000;stroke-width:6.67px;"/><circle cx="2401.85" cy="1316.33" r="13.408" style="fill:none;stroke:#000;stroke-width:6.67px;"/><ellipse cx="4061.38" cy="1148.53" rx="13.257" ry="13.408" style="fill:none;stroke:#000;stroke-width:6.67px;"/><ellipse cx="4258.77" cy="1148.53" rx="13.257" ry="13.408" style="fill:none;stroke:#000;stroke-width:6.67px;"/><path d="M3852.76,1842.88c0,7.359 5.975,13.333 13.334,13.333c7.359,0 13.333,-5.974 13.333,-13.333c0,-7.359 -5.974,-13.334 -13.333,-13.334c-7.359,0 -13.334,5.975 -13.334,13.334Z" style="fill:none;stroke:#000;stroke-width:6.67px;stroke-linejoin:miter;stroke-miterlimit:10;"/><path d="M3866.09,1829.55l-0,-344.936l-162.538,-217.085l-110.763,150.211" style="fill:none;stroke:#000;stroke-width:6.67px;"/><path d="M3916.08,1667.16c7.447,0 14.588,2.958 19.853,8.224c5.266,5.265 8.224,12.406 8.224,19.853c-0,37.426 -0,99 -0,99l-56.154,0c0,0 0,-61.574 0,-99c0,-7.447 2.958,-14.588 8.224,-19.853c5.265,-5.266 12.407,-8.224 19.853,-8.224l0,0Z" style="fill:none;stroke:#000;stroke-width:6.67px;"/><path d="M3994.79,1842.88c0,7.359 -5.974,13.333 -13.333,13.333c-7.359,0 -13.333,-5.974 -13.333,-13.333c-0,-7.359 5.974,-13.334 13.333,-13.334c7.359,0 13.333,5.975 13.333,13.334Z" style="fill:none;stroke:#000;stroke-width:6.67px;stroke-linejoin:miter;stroke-miterlimit:10;"/><path d="M3866.09,1577.74l115.364,100.264l0,151.541" style="fill:none;stroke:#000;stroke-width:6.67px;"/><path d="M3320.77,1842.87c-0.006,7.358 5.965,13.337 13.324,13.342c7.359,0.005 13.337,-5.965 13.342,-13.324c0.005,-7.359 -5.965,-13.337 -13.324,-13.343c-7.359,-0.005 -13.337,5.966 -13.342,13.325Z" style="fill:none;stroke:#000;stroke-width:6.67px;stroke-linejoin:miter;stroke-miterlimit:10;"/><path d="M3334.11,1829.55c0.101,-145.736 0.534,-772.851 0.534,-772.851" style="fill:none;stroke:#000;stroke-width:6.67px;"/><path d="M3606.12,1842.88c0,7.359 -5.974,13.333 -13.333,13.333c-7.359,0 -13.333,-5.974 -13.333,-13.333c-0,-7.359 5.974,-13.334 13.333,-13.334c7.359,0 13.333,5.975 13.333,13.334Z" style="fill:none;stroke:#000;stroke-width:6.67px;stroke-linejoin:miter;stroke-miterlimit:10;"/><path d="M3592.79,1056.34l-0,773.202" style="fill:none;stroke:#000;stroke-width:6.67px;"/><path d="M3427.01,1143.66c18.833,-0 34.1,15.267 34.1,34.1c0,45.799 0,121.501 0,121.501l-68.292,-0c-0,-0 -0,-75.702 -0,-121.501c-0,-18.833 15.267,-34.1 34.1,-34.1c0.031,-0 0.061,-0 0.092,-0Z" style="fill:none;stroke:#000;stroke-width:6.67px;"/><path d="M3404.83,1463.18c6.634,0 12.013,5.378 12.013,12.013c-0,20.867 -0,61.607 -0,61.607l-24.026,0c-0,0 -0,-40.74 -0,-61.607c-0,-6.635 5.378,-12.013 12.013,-12.013c-0,0 -0,0 -0,0Z" style="fill:none;stroke:#000;stroke-width:6.67px;"/><path d="M3452.88,1463.18c6.634,0 12.012,5.378 12.012,12.013c0,20.867 0,61.607 0,61.607l-24.025,0l-0,-61.607c-0,-6.635 5.378,-12.013 12.012,-12.013c0,0 0.001,0 0.001,0Z" style="fill:none;stroke:#000;stroke-width:6.67px;"/><path d="M3500.93,1463.18c6.634,0 12.012,5.378 12.012,12.013c0,20.867 0,61.607 0,61.607l-24.026,0c0,0 0,-40.74 0,-61.607c0,-6.635 5.379,-12.013 12.013,-12.013l0.001,0Z" style="fill:none;stroke:#000;stroke-width:6.67px;"/><path d="M3495.3,1143.66c18.833,-0 34.1,15.267 34.1,34.1c0,45.799 0,121.501 0,121.501l-68.293,-0c0,-0 0,-75.702 0,-121.501c0,-18.833 15.268,-34.1 34.101,-34.1c0.03,-0 0.061,-0 0.092,-0Z" style="fill:none;stroke:#000;stroke-width:6.67px;"/><path d="M3464.94,1694.33c18.833,0 34.101,15.267 34.101,34.101c-0,28.944 -0,65.81 -0,65.81l-68.293,0c0,0 0,-36.866 0,-65.81c0,-18.834 15.268,-34.101 34.101,-34.101c0.03,0 0.061,0 0.091,0Z" style="fill:none;stroke:#000;stroke-width:6.67px;"/><path d="M3659.55,1842.88c-0,7.359 5.974,13.333 13.333,13.333c7.359,0 13.334,-5.974 13.334,-13.333c-0,-7.359 -5.975,-13.334 -13.334,-13.334c-7.359,0 -13.333,5.975 -13.333,13.334Z" style="fill:none;stroke:#000;stroke-width:6.67px;stroke-linejoin:miter;stroke-miterlimit:10;"/><path d="M3760.29,1842.88c-0,7.359 -5.975,13.333 -13.334,13.333c-7.359,0 -13.333,-5.974 -13.333,-13.333c-0,-7.359 5.974,-13.334 13.333,-13.334c7.359,0 13.334,5.975 13.334,13.334Z" style="fill:none;stroke:#000;stroke-width:6.67px;stroke-linejoin:miter;stroke-miterlimit:10;"/><path d="M3672.88,1829.55l0,-35.81c0,-18.833 15.268,-34.101 34.101,-34.101l5.877,0c18.833,0 34.1,15.268 34.1,34.101l0,35.81" style="fill:none;stroke:#000;stroke-width:6.67px;"/><path d="M3428.86,1463.18c6.634,0 12.013,5.378 12.013,12.013c-0,20.867 -0,61.607 -0,61.607l-24.026,0c-0,0 -0,-40.74 -0,-61.607c-0,-6.635 5.378,-12.013 12.012,-12.013c0.001,0 0.001,0 0.001,0Z" style="fill:none;stroke:#000;stroke-width:6.67px;"/><path d="M3476.91,1463.18c6.634,0 12.012,5.378 12.012,12.013c0,20.867 0,61.607 0,61.607l-24.026,0c0,0 0,-40.74 0,-61.607c0,-6.635 5.379,-12.013 12.013,-12.013c0,0 0.001,0 0.001,0Z" style="fill:none;stroke:#000;stroke-width:6.67px;"/><path d="M3524.96,1463.18c6.635,0 12.013,5.378 12.013,12.013c0,20.867 0,61.607 0,61.607l-24.026,0c0,0 0,-40.74 0,-61.607c0,-6.635 5.379,-12.013 12.013,-12.013c0,0 0,0 0,0Z" style="fill:none;stroke:#000;stroke-width:6.67px;"/><path d="M3661.87,1536.8c6.634,0 12.012,5.379 12.012,12.013c0,35.662 0,138.449 0,138.449l-24.026,0c0,0 0,-102.787 0,-138.449c0,-6.634 5.379,-12.013 12.013,-12.013c0,0 0,0 0.001,0Z" style="fill:none;stroke:#000;stroke-width:6.67px;"/><path d="M3709.92,1536.8c6.635,0 12.013,5.379 12.013,12.013c0,35.662 0,138.449 0,138.449l-24.026,0c0,0 0,-102.787 0,-138.449c0,-6.634 5.379,-12.013 12.013,-12.013c0,0 0,0 0,0Z" style="fill:none;stroke:#000;stroke-width:6.67px;"/><path d="M3757.97,1536.8c6.635,0 12.013,5.379 12.013,12.013c0,35.662 0,138.449 0,138.449l-24.026,0c0,0 0,-102.787 0,-138.449c0,-6.634 5.378,-12.013 12.013,-12.013l0,0Z" style="fill:none;stroke:#000;stroke-width:6.67px;"/><path d="M3685.89,1536.8c6.634,0 12.012,5.379 12.012,12.013c0,35.662 0,138.449 0,138.449l-24.026,0c0,0 0,-102.787 0,-138.449c0,-6.634 5.379,-12.013 12.013,-12.013c0,0 0,0 0.001,0Z" style="fill:none;stroke:#000;stroke-width:6.67px;"/><path d="M3733.95,1536.8c6.635,0 12.013,5.379 12.013,12.013c0,35.662 0,138.449 0,138.449l-24.026,0c0,0 0,-102.787 0,-138.449c0,-6.634 5.378,-12.013 12.013,-12.013l0,0Z" style="fill:none;stroke:#000;stroke-width:6.67px;"/><path d="M3337.67,1028.77l22.335,-94.118l25.918,109.22l-37.93,0" style="fill:none;stroke:#000;stroke-width:6.67px;"/><path d="M3463.44,117.18l77.513,926.689l-155.025,0l77.512,-926.689Z" style="fill:none;stroke:#000;stroke-width:6.67px;"/><ellipse cx="3334.39" cy="1042.58" rx="13.257" ry="13.408" style="fill:none;stroke:#000;stroke-width:6.67px;"/><path d="M3579.3,1043.87l-38.347,0l25.918,-109.22l22.426,94.504" style="fill:none;stroke:#000;stroke-width:6.67px;"/><path d="M3717.13,1438.65c18.79,0 36.812,7.465 50.099,20.752c13.287,13.287 20.752,31.309 20.752,50.099l-0,207.335l-158.19,-0l-0,-207.335c-0,-18.79 7.464,-36.812 20.752,-50.099c13.287,-13.287 31.308,-20.752 50.099,-20.752l16.488,0Z" style="fill:none;stroke:#000;stroke-width:6.67px;"/><ellipse cx="3592.79" cy="1042.58" rx="13.257" ry="13.408" style="fill:none;stroke:#000;stroke-width:6.67px;"/><ellipse cx="3463.41" cy="103.031" rx="13.257" ry="13.408" style="fill:none;stroke:#000;stroke-width:6.67px;"/><path d="M211.258,1558.62c0,-7.359 5.975,-13.334 13.334,-13.334c7.359,0 13.333,5.975 13.333,13.334c-0,7.358 -5.974,13.333 -13.333,13.333c-7.359,-0 -13.334,-5.975 -13.334,-13.333Z" style="fill:none;stroke:#000;stroke-width:6.67px;stroke-linejoin:miter;stroke-miterlimit:10;"/><path d="M224.592,1851.37l-0,-279.41" style="fill:none;stroke:#000;stroke-width:6.67px;"/><path d="M173.254,1654.58c6.715,3.011 14.611,0.005 17.622,-6.71c3.012,-6.714 0.006,-14.61 -6.709,-17.622c-6.714,-3.011 -14.611,-0.005 -17.622,6.709c-3.012,6.715 -0.005,14.611 6.709,17.623Z" style="fill:none;stroke:#000;stroke-width:6.67px;stroke-linejoin:miter;stroke-miterlimit:10;"/><path d="M274.72,1655.13c-6.747,2.937 -14.61,-0.155 -17.547,-6.902c-2.938,-6.747 0.155,-14.61 6.902,-17.548c6.747,-2.938 14.609,0.155 17.547,6.902c2.938,6.747 -0.155,14.61 -6.902,17.548Z" style="fill:none;stroke:#000;stroke-width:6.67px;stroke-linejoin:miter;stroke-miterlimit:10;"/><path d="M166.545,1636.96c-30.964,-19.381 -51.574,-53.796 -51.574,-92.987c-0,-60.501 49.119,-109.621 109.621,-109.621c60.501,0 109.621,49.12 109.621,109.621c-0,39.618 -21.063,74.355 -52.591,93.616" style="fill:none;stroke:#000;stroke-width:6.67px;"/></g></svg>